<mxfile host="Electron" modified="2024-04-20T15:42:12.683Z" agent="Mozilla/5.0 (Windows NT 10.0; Win64; x64) AppleWebKit/537.36 (KHTML, like Gecko) draw.io/24.2.5 Chrome/120.0.6099.109 Electron/28.1.0 Safari/537.36" etag="Yy9xBz6q8eRuNlAXq7Pg" version="24.2.5" type="device">
  <diagram id="C5RBs43oDa-KdzZeNtuy" name="Page-1">
    <mxGraphModel dx="1120" dy="532" grid="1" gridSize="10" guides="1" tooltips="1" connect="1" arrows="1" fold="1" page="1" pageScale="1" pageWidth="827" pageHeight="1169" math="0" shadow="0">
      <root>
        <mxCell id="WIyWlLk6GJQsqaUBKTNV-0" />
        <mxCell id="WIyWlLk6GJQsqaUBKTNV-1" parent="WIyWlLk6GJQsqaUBKTNV-0" />
        <mxCell id="WIyWlLk6GJQsqaUBKTNV-2" value="" style="rounded=0;html=1;jettySize=auto;orthogonalLoop=1;fontSize=11;endArrow=block;endFill=0;endSize=8;strokeWidth=1;shadow=0;labelBackgroundColor=none;edgeStyle=orthogonalEdgeStyle;" parent="WIyWlLk6GJQsqaUBKTNV-1" source="WIyWlLk6GJQsqaUBKTNV-3" target="WIyWlLk6GJQsqaUBKTNV-6" edge="1">
          <mxGeometry relative="1" as="geometry" />
        </mxCell>
        <mxCell id="WIyWlLk6GJQsqaUBKTNV-3" value="Chiedo e salvo i minuti di chiamate ed il numero di messaggi" style="rounded=1;whiteSpace=wrap;html=1;fontSize=12;glass=0;strokeWidth=1;shadow=0;" parent="WIyWlLk6GJQsqaUBKTNV-1" vertex="1">
          <mxGeometry x="335" y="60" width="120" height="60" as="geometry" />
        </mxCell>
        <mxCell id="Mmsq4f1Ye5TeFk7vEaQr-0" style="edgeStyle=orthogonalEdgeStyle;rounded=0;orthogonalLoop=1;jettySize=auto;html=1;exitX=1;exitY=0.5;exitDx=0;exitDy=0;" edge="1" parent="WIyWlLk6GJQsqaUBKTNV-1" source="WIyWlLk6GJQsqaUBKTNV-6" target="WIyWlLk6GJQsqaUBKTNV-7">
          <mxGeometry relative="1" as="geometry" />
        </mxCell>
        <mxCell id="Mmsq4f1Ye5TeFk7vEaQr-1" value="NO" style="edgeLabel;html=1;align=center;verticalAlign=middle;resizable=0;points=[];" vertex="1" connectable="0" parent="Mmsq4f1Ye5TeFk7vEaQr-0">
          <mxGeometry x="-0.0105" y="2" relative="1" as="geometry">
            <mxPoint as="offset" />
          </mxGeometry>
        </mxCell>
        <mxCell id="Mmsq4f1Ye5TeFk7vEaQr-3" value="" style="edgeStyle=orthogonalEdgeStyle;rounded=0;orthogonalLoop=1;jettySize=auto;html=1;" edge="1" parent="WIyWlLk6GJQsqaUBKTNV-1" source="WIyWlLk6GJQsqaUBKTNV-6" target="Mmsq4f1Ye5TeFk7vEaQr-2">
          <mxGeometry relative="1" as="geometry" />
        </mxCell>
        <mxCell id="Mmsq4f1Ye5TeFk7vEaQr-4" value="SI" style="edgeLabel;html=1;align=center;verticalAlign=middle;resizable=0;points=[];" vertex="1" connectable="0" parent="Mmsq4f1Ye5TeFk7vEaQr-3">
          <mxGeometry x="-0.1167" y="-3" relative="1" as="geometry">
            <mxPoint as="offset" />
          </mxGeometry>
        </mxCell>
        <mxCell id="WIyWlLk6GJQsqaUBKTNV-6" value="Ho fatto più di 50 min di chiamate?" style="rhombus;whiteSpace=wrap;html=1;shadow=0;fontFamily=Helvetica;fontSize=12;align=center;strokeWidth=1;spacing=6;spacingTop=-4;" parent="WIyWlLk6GJQsqaUBKTNV-1" vertex="1">
          <mxGeometry x="280" y="150" width="230" height="100" as="geometry" />
        </mxCell>
        <mxCell id="Mmsq4f1Ye5TeFk7vEaQr-10" style="edgeStyle=orthogonalEdgeStyle;rounded=0;orthogonalLoop=1;jettySize=auto;html=1;exitX=0.5;exitY=1;exitDx=0;exitDy=0;entryX=0.5;entryY=0;entryDx=0;entryDy=0;" edge="1" parent="WIyWlLk6GJQsqaUBKTNV-1" source="WIyWlLk6GJQsqaUBKTNV-7" target="Mmsq4f1Ye5TeFk7vEaQr-8">
          <mxGeometry relative="1" as="geometry">
            <Array as="points">
              <mxPoint x="665" y="290" />
              <mxPoint x="395" y="290" />
            </Array>
          </mxGeometry>
        </mxCell>
        <mxCell id="WIyWlLk6GJQsqaUBKTNV-7" value="Non ho costi extra per le chiamate" style="rounded=1;whiteSpace=wrap;html=1;fontSize=12;glass=0;strokeWidth=1;shadow=0;" parent="WIyWlLk6GJQsqaUBKTNV-1" vertex="1">
          <mxGeometry x="605" y="180" width="120" height="40" as="geometry" />
        </mxCell>
        <mxCell id="Mmsq4f1Ye5TeFk7vEaQr-9" value="" style="edgeStyle=orthogonalEdgeStyle;rounded=0;orthogonalLoop=1;jettySize=auto;html=1;entryX=0.5;entryY=0;entryDx=0;entryDy=0;" edge="1" parent="WIyWlLk6GJQsqaUBKTNV-1" source="Mmsq4f1Ye5TeFk7vEaQr-2" target="Mmsq4f1Ye5TeFk7vEaQr-8">
          <mxGeometry relative="1" as="geometry">
            <mxPoint x="390" y="310" as="targetPoint" />
            <Array as="points">
              <mxPoint x="130" y="290" />
              <mxPoint x="395" y="290" />
            </Array>
          </mxGeometry>
        </mxCell>
        <mxCell id="Mmsq4f1Ye5TeFk7vEaQr-2" value="Moltiplico il costo di ogni minuto di chiamata extra per il numero di minuti extra" style="rounded=1;whiteSpace=wrap;html=1;shadow=0;strokeWidth=1;spacing=6;spacingTop=-4;" vertex="1" parent="WIyWlLk6GJQsqaUBKTNV-1">
          <mxGeometry x="70" y="160" width="120" height="80" as="geometry" />
        </mxCell>
        <mxCell id="Mmsq4f1Ye5TeFk7vEaQr-13" style="edgeStyle=orthogonalEdgeStyle;rounded=0;orthogonalLoop=1;jettySize=auto;html=1;exitX=0;exitY=0.5;exitDx=0;exitDy=0;" edge="1" parent="WIyWlLk6GJQsqaUBKTNV-1" source="Mmsq4f1Ye5TeFk7vEaQr-8" target="Mmsq4f1Ye5TeFk7vEaQr-11">
          <mxGeometry relative="1" as="geometry" />
        </mxCell>
        <mxCell id="Mmsq4f1Ye5TeFk7vEaQr-14" value="SI" style="edgeLabel;html=1;align=center;verticalAlign=middle;resizable=0;points=[];" vertex="1" connectable="0" parent="Mmsq4f1Ye5TeFk7vEaQr-13">
          <mxGeometry x="-0.0889" y="-4" relative="1" as="geometry">
            <mxPoint as="offset" />
          </mxGeometry>
        </mxCell>
        <mxCell id="Mmsq4f1Ye5TeFk7vEaQr-15" style="edgeStyle=orthogonalEdgeStyle;rounded=0;orthogonalLoop=1;jettySize=auto;html=1;exitX=1;exitY=0.5;exitDx=0;exitDy=0;entryX=0;entryY=0.5;entryDx=0;entryDy=0;" edge="1" parent="WIyWlLk6GJQsqaUBKTNV-1" source="Mmsq4f1Ye5TeFk7vEaQr-8" target="Mmsq4f1Ye5TeFk7vEaQr-12">
          <mxGeometry relative="1" as="geometry" />
        </mxCell>
        <mxCell id="Mmsq4f1Ye5TeFk7vEaQr-16" value="NO" style="edgeLabel;html=1;align=center;verticalAlign=middle;resizable=0;points=[];" vertex="1" connectable="0" parent="Mmsq4f1Ye5TeFk7vEaQr-15">
          <mxGeometry x="0.0526" y="3" relative="1" as="geometry">
            <mxPoint as="offset" />
          </mxGeometry>
        </mxCell>
        <mxCell id="Mmsq4f1Ye5TeFk7vEaQr-8" value="Ho fatto mandato più di 50 messaggi?" style="rhombus;whiteSpace=wrap;html=1;rounded=1;shadow=0;strokeWidth=1;spacing=6;spacingTop=-4;" vertex="1" parent="WIyWlLk6GJQsqaUBKTNV-1">
          <mxGeometry x="280" y="320" width="230" height="130" as="geometry" />
        </mxCell>
        <mxCell id="Mmsq4f1Ye5TeFk7vEaQr-18" value="" style="edgeStyle=orthogonalEdgeStyle;rounded=0;orthogonalLoop=1;jettySize=auto;html=1;" edge="1" parent="WIyWlLk6GJQsqaUBKTNV-1" source="Mmsq4f1Ye5TeFk7vEaQr-11" target="Mmsq4f1Ye5TeFk7vEaQr-17">
          <mxGeometry relative="1" as="geometry">
            <Array as="points">
              <mxPoint x="130" y="510" />
            </Array>
          </mxGeometry>
        </mxCell>
        <mxCell id="Mmsq4f1Ye5TeFk7vEaQr-11" value="Moltiplico il costo di ogni messaggio extra per il numero di messaggi extra" style="rounded=1;whiteSpace=wrap;html=1;shadow=0;strokeWidth=1;spacing=6;spacingTop=-4;" vertex="1" parent="WIyWlLk6GJQsqaUBKTNV-1">
          <mxGeometry x="70" y="345" width="120" height="80" as="geometry" />
        </mxCell>
        <mxCell id="Mmsq4f1Ye5TeFk7vEaQr-19" style="edgeStyle=orthogonalEdgeStyle;rounded=0;orthogonalLoop=1;jettySize=auto;html=1;exitX=0.5;exitY=1;exitDx=0;exitDy=0;entryX=1;entryY=0.5;entryDx=0;entryDy=0;" edge="1" parent="WIyWlLk6GJQsqaUBKTNV-1" source="Mmsq4f1Ye5TeFk7vEaQr-12" target="Mmsq4f1Ye5TeFk7vEaQr-17">
          <mxGeometry relative="1" as="geometry" />
        </mxCell>
        <mxCell id="Mmsq4f1Ye5TeFk7vEaQr-12" value="Non ho costi extra per i messaggi" style="rounded=1;whiteSpace=wrap;html=1;fontSize=12;glass=0;strokeWidth=1;shadow=0;" vertex="1" parent="WIyWlLk6GJQsqaUBKTNV-1">
          <mxGeometry x="605" y="365" width="120" height="40" as="geometry" />
        </mxCell>
        <mxCell id="Mmsq4f1Ye5TeFk7vEaQr-21" value="" style="edgeStyle=orthogonalEdgeStyle;rounded=0;orthogonalLoop=1;jettySize=auto;html=1;" edge="1" parent="WIyWlLk6GJQsqaUBKTNV-1" source="Mmsq4f1Ye5TeFk7vEaQr-17" target="Mmsq4f1Ye5TeFk7vEaQr-20">
          <mxGeometry relative="1" as="geometry" />
        </mxCell>
        <mxCell id="Mmsq4f1Ye5TeFk7vEaQr-17" value="Calcolo costo totale&lt;div&gt;al netto tasse&lt;/div&gt;" style="whiteSpace=wrap;html=1;rounded=1;shadow=0;strokeWidth=1;spacing=6;spacingTop=-4;" vertex="1" parent="WIyWlLk6GJQsqaUBKTNV-1">
          <mxGeometry x="335" y="480" width="120" height="60" as="geometry" />
        </mxCell>
        <mxCell id="Mmsq4f1Ye5TeFk7vEaQr-23" value="" style="edgeStyle=orthogonalEdgeStyle;rounded=0;orthogonalLoop=1;jettySize=auto;html=1;" edge="1" parent="WIyWlLk6GJQsqaUBKTNV-1" source="Mmsq4f1Ye5TeFk7vEaQr-20" target="Mmsq4f1Ye5TeFk7vEaQr-22">
          <mxGeometry relative="1" as="geometry" />
        </mxCell>
        <mxCell id="Mmsq4f1Ye5TeFk7vEaQr-20" value="Aggiungo 5% tasse" style="whiteSpace=wrap;html=1;rounded=1;shadow=0;strokeWidth=1;spacing=6;spacingTop=-4;" vertex="1" parent="WIyWlLk6GJQsqaUBKTNV-1">
          <mxGeometry x="335" y="570" width="120" height="60" as="geometry" />
        </mxCell>
        <mxCell id="Mmsq4f1Ye5TeFk7vEaQr-25" value="" style="edgeStyle=orthogonalEdgeStyle;rounded=0;orthogonalLoop=1;jettySize=auto;html=1;" edge="1" parent="WIyWlLk6GJQsqaUBKTNV-1" source="Mmsq4f1Ye5TeFk7vEaQr-22" target="Mmsq4f1Ye5TeFk7vEaQr-24">
          <mxGeometry relative="1" as="geometry" />
        </mxCell>
        <mxCell id="Mmsq4f1Ye5TeFk7vEaQr-36" value="SI" style="edgeLabel;html=1;align=center;verticalAlign=middle;resizable=0;points=[];" vertex="1" connectable="0" parent="Mmsq4f1Ye5TeFk7vEaQr-25">
          <mxGeometry x="-0.4667" y="-2" relative="1" as="geometry">
            <mxPoint as="offset" />
          </mxGeometry>
        </mxCell>
        <mxCell id="Mmsq4f1Ye5TeFk7vEaQr-33" value="" style="edgeStyle=orthogonalEdgeStyle;rounded=0;orthogonalLoop=1;jettySize=auto;html=1;" edge="1" parent="WIyWlLk6GJQsqaUBKTNV-1" source="Mmsq4f1Ye5TeFk7vEaQr-22" target="Mmsq4f1Ye5TeFk7vEaQr-32">
          <mxGeometry relative="1" as="geometry" />
        </mxCell>
        <mxCell id="Mmsq4f1Ye5TeFk7vEaQr-37" value="NO" style="edgeLabel;html=1;align=center;verticalAlign=middle;resizable=0;points=[];" vertex="1" connectable="0" parent="Mmsq4f1Ye5TeFk7vEaQr-33">
          <mxGeometry x="-0.1273" y="-3" relative="1" as="geometry">
            <mxPoint as="offset" />
          </mxGeometry>
        </mxCell>
        <mxCell id="Mmsq4f1Ye5TeFk7vEaQr-22" value="Extracosto messaggi&lt;div&gt;è 0?&lt;/div&gt;" style="rhombus;whiteSpace=wrap;html=1;rounded=1;shadow=0;strokeWidth=1;spacing=6;spacingTop=-4;" vertex="1" parent="WIyWlLk6GJQsqaUBKTNV-1">
          <mxGeometry x="315" y="670" width="160" height="80" as="geometry" />
        </mxCell>
        <mxCell id="Mmsq4f1Ye5TeFk7vEaQr-27" value="" style="edgeStyle=orthogonalEdgeStyle;rounded=0;orthogonalLoop=1;jettySize=auto;html=1;" edge="1" parent="WIyWlLk6GJQsqaUBKTNV-1" source="Mmsq4f1Ye5TeFk7vEaQr-24" target="Mmsq4f1Ye5TeFk7vEaQr-26">
          <mxGeometry relative="1" as="geometry" />
        </mxCell>
        <mxCell id="Mmsq4f1Ye5TeFk7vEaQr-28" value="SI" style="edgeLabel;html=1;align=center;verticalAlign=middle;resizable=0;points=[];" vertex="1" connectable="0" parent="Mmsq4f1Ye5TeFk7vEaQr-27">
          <mxGeometry x="-0.1556" y="-1" relative="1" as="geometry">
            <mxPoint as="offset" />
          </mxGeometry>
        </mxCell>
        <mxCell id="Mmsq4f1Ye5TeFk7vEaQr-30" value="" style="edgeStyle=orthogonalEdgeStyle;rounded=0;orthogonalLoop=1;jettySize=auto;html=1;" edge="1" parent="WIyWlLk6GJQsqaUBKTNV-1" source="Mmsq4f1Ye5TeFk7vEaQr-24" target="Mmsq4f1Ye5TeFk7vEaQr-29">
          <mxGeometry relative="1" as="geometry">
            <Array as="points">
              <mxPoint x="70" y="710" />
            </Array>
          </mxGeometry>
        </mxCell>
        <mxCell id="Mmsq4f1Ye5TeFk7vEaQr-31" value="NO" style="edgeLabel;html=1;align=center;verticalAlign=middle;resizable=0;points=[];" vertex="1" connectable="0" parent="Mmsq4f1Ye5TeFk7vEaQr-30">
          <mxGeometry x="0.1882" y="-3" relative="1" as="geometry">
            <mxPoint as="offset" />
          </mxGeometry>
        </mxCell>
        <mxCell id="Mmsq4f1Ye5TeFk7vEaQr-24" value="Extracosto chiamate&lt;div&gt;è 0?&lt;/div&gt;" style="rhombus;whiteSpace=wrap;html=1;rounded=1;shadow=0;strokeWidth=1;spacing=6;spacingTop=-4;" vertex="1" parent="WIyWlLk6GJQsqaUBKTNV-1">
          <mxGeometry x="110" y="670" width="160" height="80" as="geometry" />
        </mxCell>
        <mxCell id="Mmsq4f1Ye5TeFk7vEaQr-26" value="Stampo tariffa base,&lt;div&gt;costo 911, tasse e totale lordo tasse&lt;/div&gt;" style="whiteSpace=wrap;html=1;rounded=1;shadow=0;strokeWidth=1;spacing=6;spacingTop=-4;" vertex="1" parent="WIyWlLk6GJQsqaUBKTNV-1">
          <mxGeometry x="130" y="910" width="120" height="60" as="geometry" />
        </mxCell>
        <mxCell id="Mmsq4f1Ye5TeFk7vEaQr-29" value="Stampo tariffa base,&lt;div&gt;extracosti chiamate, costo 911, tasse e totale lordo tasse&lt;/div&gt;" style="whiteSpace=wrap;html=1;rounded=1;shadow=0;strokeWidth=1;spacing=6;spacingTop=-4;" vertex="1" parent="WIyWlLk6GJQsqaUBKTNV-1">
          <mxGeometry x="10" y="840" width="120" height="60" as="geometry" />
        </mxCell>
        <mxCell id="Mmsq4f1Ye5TeFk7vEaQr-35" value="" style="edgeStyle=orthogonalEdgeStyle;rounded=0;orthogonalLoop=1;jettySize=auto;html=1;" edge="1" parent="WIyWlLk6GJQsqaUBKTNV-1" source="Mmsq4f1Ye5TeFk7vEaQr-32" target="Mmsq4f1Ye5TeFk7vEaQr-34">
          <mxGeometry relative="1" as="geometry" />
        </mxCell>
        <mxCell id="Mmsq4f1Ye5TeFk7vEaQr-40" value="SI" style="edgeLabel;html=1;align=center;verticalAlign=middle;resizable=0;points=[];" vertex="1" connectable="0" parent="Mmsq4f1Ye5TeFk7vEaQr-35">
          <mxGeometry x="0.0133" y="-2" relative="1" as="geometry">
            <mxPoint as="offset" />
          </mxGeometry>
        </mxCell>
        <mxCell id="Mmsq4f1Ye5TeFk7vEaQr-39" value="" style="edgeStyle=orthogonalEdgeStyle;rounded=0;orthogonalLoop=1;jettySize=auto;html=1;" edge="1" parent="WIyWlLk6GJQsqaUBKTNV-1" source="Mmsq4f1Ye5TeFk7vEaQr-32" target="Mmsq4f1Ye5TeFk7vEaQr-38">
          <mxGeometry relative="1" as="geometry">
            <Array as="points">
              <mxPoint x="750" y="710" />
            </Array>
          </mxGeometry>
        </mxCell>
        <mxCell id="Mmsq4f1Ye5TeFk7vEaQr-41" value="NO" style="edgeLabel;html=1;align=center;verticalAlign=middle;resizable=0;points=[];" vertex="1" connectable="0" parent="Mmsq4f1Ye5TeFk7vEaQr-39">
          <mxGeometry x="0.32" y="3" relative="1" as="geometry">
            <mxPoint as="offset" />
          </mxGeometry>
        </mxCell>
        <mxCell id="Mmsq4f1Ye5TeFk7vEaQr-32" value="Extracosto chiamate&lt;div&gt;è 0?&lt;/div&gt;" style="rhombus;whiteSpace=wrap;html=1;rounded=1;shadow=0;strokeWidth=1;spacing=6;spacingTop=-4;" vertex="1" parent="WIyWlLk6GJQsqaUBKTNV-1">
          <mxGeometry x="530" y="670" width="160" height="80" as="geometry" />
        </mxCell>
        <mxCell id="Mmsq4f1Ye5TeFk7vEaQr-34" value="Stampo tariffa base,&lt;div&gt;extracosti messaggi, costo 911, tasse e totale lordo tasse&lt;/div&gt;" style="whiteSpace=wrap;html=1;rounded=1;shadow=0;strokeWidth=1;spacing=6;spacingTop=-4;" vertex="1" parent="WIyWlLk6GJQsqaUBKTNV-1">
          <mxGeometry x="550" y="900" width="120" height="60" as="geometry" />
        </mxCell>
        <mxCell id="Mmsq4f1Ye5TeFk7vEaQr-38" value="Stampo tariffa base,&lt;div&gt;extracosti messaggi e chiamate, costo 911, tasse e totale lordo tasse&lt;/div&gt;" style="whiteSpace=wrap;html=1;rounded=1;shadow=0;strokeWidth=1;spacing=6;spacingTop=-4;" vertex="1" parent="WIyWlLk6GJQsqaUBKTNV-1">
          <mxGeometry x="690" y="890" width="120" height="80" as="geometry" />
        </mxCell>
      </root>
    </mxGraphModel>
  </diagram>
</mxfile>
